<?xml version="1.0" standalone="no"?>
<!DOCTYPE svg PUBLIC "-//W3C//DTD SVG 20010904//EN"
 "http://www.w3.org/TR/2001/REC-SVG-20010904/DTD/svg10.dtd">
<svg version="1.0" xmlns="http://www.w3.org/2000/svg"
 width="900.000000pt" height="267.000000pt" viewBox="0 0 900.000000 267.000000"
 preserveAspectRatio="xMidYMid meet">
<metadata>
Created by potrace 1.10, written by Peter Selinger 2001-2011
</metadata>
<g transform="translate(0.000000,267.000000) scale(0.100000,-0.100000)"
fill="#ffffff" stroke="none">
<path d="M1522 2643 c-6 -16 -21 -44 -33 -63 -12 -19 -32 -55 -46 -80 -13 -25
-33 -58 -44 -75 -10 -16 -22 -37 -26 -45 -8 -18 -119 -208 -133 -230 -6 -8
-13 -22 -17 -30 -4 -8 -25 -46 -48 -85 -22 -38 -44 -77 -48 -85 -4 -8 -16 -28
-27 -45 -11 -16 -23 -37 -27 -45 -4 -8 -25 -46 -48 -85 -22 -38 -44 -77 -48
-85 -4 -8 -16 -28 -27 -45 -11 -16 -23 -37 -27 -45 -8 -18 -89 -158 -103 -180
-6 -8 -13 -22 -17 -30 -4 -8 -32 -58 -63 -110 -31 -52 -59 -102 -63 -110 -4
-8 -16 -28 -27 -45 -19 -30 -25 -41 -74 -130 -15 -27 -36 -63 -47 -80 -10 -16
-22 -37 -26 -45 -4 -8 -26 -46 -48 -85 -23 -38 -44 -77 -48 -85 -4 -8 -16 -28
-27 -45 -11 -16 -23 -37 -27 -45 -4 -8 -26 -46 -48 -85 -23 -38 -44 -77 -48
-85 -4 -8 -16 -28 -27 -45 -11 -16 -23 -37 -27 -45 -4 -8 -26 -46 -48 -85 -23
-38 -44 -77 -48 -85 -4 -8 -16 -28 -27 -45 -11 -16 -24 -40 -29 -52 -5 -11
-15 -24 -20 -28 -6 -3 -11 -17 -11 -31 l0 -24 908 0 908 0 19 32 c11 18 23 40
28 48 4 8 16 29 26 45 11 17 34 57 52 89 26 50 29 63 20 79 -7 10 -21 35 -32
55 -11 20 -29 51 -39 67 -10 17 -28 48 -40 70 -12 22 -27 43 -34 47 -6 4 -208
8 -448 8 -377 0 -438 2 -438 15 0 8 13 36 28 62 16 26 31 55 35 63 4 8 16 29
27 45 11 17 23 37 27 45 4 8 25 47 48 85 22 39 44 77 48 85 4 8 16 29 27 45
11 17 23 37 27 45 4 8 26 47 48 85 23 39 44 77 48 85 4 8 16 29 26 45 11 17
32 53 47 80 49 89 55 100 74 130 11 17 23 37 27 45 3 8 18 33 32 55 14 22 35
58 47 80 11 22 31 56 43 75 11 19 24 42 28 50 4 8 26 47 48 85 23 39 44 77 48
85 4 8 16 29 27 45 11 17 23 37 27 45 4 8 26 47 48 85 23 39 44 77 48 85 4 8
16 29 27 45 11 17 23 37 27 45 4 8 26 47 48 85 23 39 44 77 48 85 4 8 16 29
26 45 43 67 71 126 71 150 l0 25 -298 0 -298 0 -12 -27z"/>
<path d="M2450 2656 c0 -8 -7 -16 -15 -20 -8 -3 -15 -10 -15 -15 0 -5 -26 -54
-58 -108 -32 -54 -61 -105 -65 -113 -4 -8 -16 -28 -26 -45 -11 -16 -32 -52
-47 -80 -49 -89 -55 -100 -74 -130 -11 -16 -23 -37 -27 -45 -4 -8 -26 -46 -48
-85 -23 -38 -44 -77 -48 -85 -4 -8 -16 -28 -27 -45 -11 -16 -23 -37 -27 -45
-4 -8 -26 -46 -48 -85 -23 -38 -44 -77 -48 -85 -4 -8 -16 -28 -27 -45 -11 -16
-23 -37 -27 -45 -7 -16 -87 -155 -103 -180 -39 -61 -42 -76 -21 -111 12 -19
24 -41 28 -49 4 -8 26 -46 48 -85 23 -38 44 -77 48 -85 4 -8 16 -28 27 -45 11
-16 23 -37 27 -45 4 -8 25 -46 48 -85 22 -38 44 -77 48 -85 4 -8 16 -28 27
-45 11 -16 23 -37 27 -45 4 -8 25 -46 48 -85 22 -38 44 -77 48 -85 4 -8 16
-28 27 -45 19 -30 25 -41 74 -130 15 -27 36 -63 47 -80 10 -16 22 -37 26 -45
4 -8 33 -59 65 -113 32 -54 58 -103 58 -107 0 -28 60 -30 792 -28 l753 3 42
70 c23 39 50 84 58 100 9 17 25 44 35 60 11 17 23 37 27 45 4 8 25 47 48 85
22 39 44 77 48 85 4 8 16 29 26 45 11 17 31 50 44 75 14 25 34 61 46 80 11 19
25 44 31 55 6 11 19 34 30 50 11 17 23 37 27 45 4 8 25 47 48 85 22 39 44 77
48 85 4 8 16 29 27 45 11 17 26 44 34 60 8 17 29 53 45 80 17 28 35 59 41 70
6 11 21 38 34 60 l24 39 -20 36 c-11 19 -28 49 -39 65 -10 17 -22 37 -26 45
-21 46 -66 110 -78 110 -7 0 -15 -8 -19 -17 -3 -10 -15 -31 -26 -48 -10 -16
-26 -43 -34 -60 -8 -16 -29 -52 -45 -80 -17 -27 -35 -59 -41 -70 -5 -11 -14
-27 -20 -35 -14 -22 -95 -162 -103 -180 -4 -8 -16 -28 -27 -45 -11 -16 -23
-37 -27 -45 -8 -18 -89 -158 -103 -180 -6 -8 -13 -22 -17 -30 -4 -8 -32 -58
-63 -110 -31 -52 -59 -102 -63 -110 -4 -8 -16 -28 -27 -45 -11 -16 -26 -43
-34 -60 -8 -16 -29 -52 -45 -80 -17 -27 -35 -60 -40 -71 -5 -12 -17 -24 -26
-28 -10 -3 -283 -6 -608 -6 -621 0 -608 -1 -628 45 -5 11 -13 27 -19 35 -14
22 -95 162 -103 180 -4 8 -16 29 -27 45 -11 17 -23 37 -27 45 -4 8 -26 47 -48
85 -23 39 -44 77 -48 85 -4 8 -16 29 -27 45 -11 17 -23 37 -27 45 -4 8 -25 47
-48 85 -22 39 -44 77 -48 85 -4 8 -16 29 -27 45 -11 17 -23 37 -27 45 -4 8
-26 48 -50 88 -24 41 -43 80 -43 87 0 7 19 46 43 87 24 40 46 80 50 88 4 8 16
29 27 45 11 17 23 37 27 45 4 8 26 47 48 85 23 39 44 77 48 85 4 8 16 29 27
45 11 17 23 37 27 45 4 8 25 47 48 85 22 39 44 77 48 85 4 8 16 29 27 45 19
30 25 41 74 130 15 28 36 64 47 80 10 17 23 39 28 50 20 46 7 45 628 45 325 0
598 -3 608 -6 9 -4 21 -16 26 -28 5 -11 18 -35 28 -52 10 -17 30 -51 43 -75
38 -70 52 -89 65 -89 7 0 13 4 13 9 0 5 19 42 43 83 24 40 46 80 50 88 4 8 16
29 26 46 18 29 18 31 0 65 -10 18 -21 41 -25 49 -4 8 -32 55 -61 104 -29 49
-53 92 -53 97 0 5 -332 9 -755 9 -639 0 -755 -2 -755 -14z"/>
<path d="M4566 2653 c-3 -10 -19 -40 -36 -68 -16 -27 -34 -59 -40 -70 -5 -11
-16 -29 -22 -40 -27 -41 -63 -102 -86 -145 -39 -71 -52 -93 -72 -125 -10 -16
-31 -52 -46 -80 -49 -89 -55 -100 -74 -130 -11 -16 -23 -37 -27 -45 -4 -8 -26
-46 -48 -85 -23 -38 -44 -77 -48 -85 -4 -8 -16 -28 -27 -45 -11 -16 -23 -37
-27 -45 -8 -17 -89 -158 -103 -180 -6 -8 -14 -24 -20 -35 -5 -11 -27 -49 -48
-85 l-38 -65 41 -70 c22 -38 44 -77 48 -85 21 -45 57 -95 69 -98 8 -1 24 16
37 40 12 24 31 57 41 73 20 32 51 87 83 145 10 19 27 49 38 65 10 17 22 37 26
45 4 8 26 47 48 85 23 39 44 77 48 85 4 8 16 29 27 45 11 17 23 37 27 45 4 8
25 47 48 85 22 39 44 77 48 85 4 8 16 29 27 45 11 17 23 37 27 45 4 8 25 47
48 85 22 39 44 77 48 85 4 8 16 29 27 45 21 34 34 57 74 132 15 28 34 54 43
57 8 4 281 6 606 6 657 0 604 6 646 -72 60 -116 106 -182 118 -175 5 3 19 25
32 49 12 24 38 70 57 103 61 106 60 98 29 157 -41 76 -54 99 -75 133 -11 17
-24 39 -30 50 -29 59 35 55 -787 55 -706 0 -751 -1 -757 -17z"/>
<path d="M6694 2661 c3 -5 -5 -24 -17 -42 -13 -19 -26 -41 -30 -49 -4 -8 -17
-31 -28 -50 -12 -19 -32 -55 -46 -80 -13 -25 -33 -58 -44 -75 -10 -16 -22 -37
-26 -45 -8 -18 -119 -208 -133 -230 -6 -8 -13 -22 -17 -30 -4 -8 -25 -46 -48
-85 -22 -38 -44 -77 -48 -85 -4 -8 -16 -28 -27 -45 -11 -16 -23 -37 -27 -45
-3 -8 -16 -31 -28 -50 -37 -60 -85 -151 -85 -161 0 -5 63 -9 150 -9 l150 0 25
40 c14 22 35 57 46 78 11 20 29 51 40 67 10 17 22 37 26 45 8 17 89 158 103
180 6 8 15 24 20 35 6 11 24 43 41 70 16 28 37 64 45 80 8 17 23 44 34 60 10
17 29 49 41 73 13 24 28 47 35 53 12 10 1198 14 1214 4 7 -5 99 -158 123 -205
4 -8 16 -28 26 -45 11 -16 32 -52 47 -80 49 -89 55 -100 74 -130 11 -16 23
-37 27 -45 4 -8 26 -46 48 -85 23 -38 44 -77 48 -85 4 -8 16 -28 27 -45 11
-16 23 -37 27 -45 8 -17 89 -158 103 -180 6 -8 14 -25 19 -37 6 -11 15 -24 20
-28 14 -8 14 -52 0 -60 -5 -4 -14 -17 -20 -28 -5 -12 -13 -29 -19 -37 -14 -22
-95 -163 -103 -180 -4 -8 -16 -28 -27 -45 -11 -16 -23 -37 -27 -45 -4 -8 -25
-46 -48 -85 -22 -38 -44 -77 -48 -85 -4 -8 -16 -28 -26 -45 -11 -16 -32 -52
-47 -80 -49 -89 -55 -100 -74 -130 -11 -16 -23 -37 -27 -45 -24 -48 -116 -200
-123 -205 -16 -10 -1203 -5 -1215 5 -6 5 -21 28 -34 52 -12 24 -31 57 -41 73
-10 17 -28 49 -40 73 -12 23 -27 42 -34 42 -7 0 -23 -21 -37 -46 -13 -25 -28
-53 -34 -62 -5 -10 -27 -47 -48 -84 l-37 -67 21 -37 c11 -21 32 -58 46 -83 13
-25 33 -59 44 -76 10 -16 24 -40 30 -52 l12 -23 758 0 758 0 24 33 c14 17 37
55 52 82 14 28 35 64 45 80 20 32 52 88 83 145 10 19 27 49 38 65 10 17 22 37
26 45 4 8 32 58 63 110 31 52 59 102 63 110 4 8 16 29 27 45 19 30 25 41 74
130 15 28 36 64 47 80 10 17 22 37 26 45 4 8 26 47 48 85 23 39 44 77 48 85 4
8 16 29 27 45 10 17 31 53 46 82 15 29 35 54 43 56 14 4 14 5 1 6 -9 0 -28 25
-43 54 -16 28 -37 66 -47 82 -11 17 -23 37 -27 45 -4 8 -25 47 -48 85 -22 39
-44 77 -48 85 -4 8 -16 29 -26 45 -11 17 -32 53 -47 80 -49 89 -55 100 -74
130 -11 17 -23 37 -27 45 -4 8 -32 58 -63 110 -31 52 -59 102 -63 110 -4 8
-16 29 -26 45 -11 17 -28 46 -38 65 -31 57 -63 113 -83 145 -10 17 -31 53 -45
80 -15 28 -38 64 -51 82 -13 17 -24 36 -24 42 0 8 -228 11 -761 11 -436 0
-758 -4 -755 -9z"/>
<path d="M5319 1314 c-13 -16 -32 -47 -46 -74 -4 -8 -26 -48 -50 -88 -24 -40
-41 -77 -38 -83 4 -5 238 -9 591 -9 493 0 585 -2 590 -14 5 -12 -10 -43 -54
-111 -6 -11 -17 -29 -22 -40 -6 -11 -24 -42 -41 -70 -16 -27 -37 -63 -45 -80
-8 -16 -23 -43 -34 -60 -11 -16 -23 -37 -27 -45 -3 -8 -18 -33 -32 -55 -14
-22 -35 -58 -47 -80 -11 -22 -31 -56 -42 -75 -12 -19 -31 -54 -43 -78 -42 -78
11 -72 -646 -72 -325 0 -598 2 -607 6 -8 3 -22 18 -29 32 -25 50 -68 127 -88
157 -10 17 -22 36 -25 43 -11 22 -22 13 -56 -45 -18 -32 -38 -67 -45 -78 -7
-11 -17 -30 -22 -42 -5 -11 -14 -24 -20 -27 -5 -3 -12 -19 -16 -35 -6 -29 12
-73 66 -156 10 -16 23 -41 29 -54 6 -13 20 -37 31 -52 l20 -29 761 2 761 3 19
30 c10 17 22 39 28 50 5 11 14 27 20 35 14 22 95 163 103 180 4 8 16 29 27 45
11 17 23 37 27 45 8 18 89 159 103 180 6 8 13 22 17 30 4 8 32 58 63 110 31
52 59 102 63 110 4 8 16 29 27 45 11 17 26 44 34 60 8 17 29 53 45 80 17 28
35 59 41 70 5 11 14 27 20 35 34 52 101 174 106 195 l6 25 -755 0 c-681 0
-756 -2 -768 -16z"/>
</g>
</svg>
