<?xml version="1.0" standalone="no"?>
<!DOCTYPE svg PUBLIC "-//W3C//DTD SVG 20010904//EN"
 "http://www.w3.org/TR/2001/REC-SVG-20010904/DTD/svg10.dtd">
<svg version="1.0" xmlns="http://www.w3.org/2000/svg"
 width="900.000000pt" height="216.000000pt" viewBox="0 0 900.000000 216.000000"
 preserveAspectRatio="xMidYMid meet">
<metadata>
Created by potrace 1.10, written by Peter Selinger 2001-2011
</metadata>
<g transform="translate(0.000000,216.000000) scale(0.100000,-0.100000)"
fill="#ffffff" stroke="none">
<path d="M1225 2131 c-3 -16 -13 -35 -21 -42 -8 -6 -14 -15 -14 -19 0 -5 -19
-41 -43 -82 -24 -40 -46 -80 -50 -88 -4 -8 -16 -28 -27 -45 -11 -16 -23 -37
-27 -45 -4 -8 -32 -58 -63 -110 -31 -52 -59 -102 -63 -110 -4 -8 -16 -28 -27
-45 -11 -16 -23 -37 -27 -45 -4 -8 -25 -46 -48 -85 -22 -38 -44 -77 -48 -85
-4 -8 -16 -28 -27 -45 -11 -16 -23 -37 -27 -45 -4 -8 -32 -58 -63 -110 -31
-52 -59 -102 -63 -110 -4 -8 -16 -28 -27 -45 -11 -16 -23 -37 -27 -45 -4 -8
-25 -46 -48 -85 -22 -38 -44 -77 -48 -85 -4 -8 -16 -28 -27 -45 -11 -16 -23
-37 -27 -45 -4 -8 -26 -46 -48 -85 -23 -38 -44 -77 -48 -85 -4 -8 -16 -28 -27
-45 -11 -16 -24 -39 -30 -50 -5 -11 -14 -27 -20 -35 -14 -22 -95 -163 -103
-180 -4 -8 -16 -28 -27 -45 -31 -49 -51 -88 -60 -117 l-9 -28 243 0 c212 0
245 2 257 16 14 17 33 48 45 74 4 8 26 47 49 85 22 39 44 77 48 85 4 8 16 29
27 45 11 17 23 37 27 45 4 8 26 47 48 85 23 39 44 77 48 85 4 8 16 29 27 45
11 17 24 39 30 50 6 11 20 36 31 55 12 19 32 55 46 80 13 25 33 59 44 75 10
17 22 37 26 45 4 8 32 58 63 110 31 52 59 102 63 110 4 8 16 29 27 45 11 17
23 37 27 45 4 8 26 47 48 85 23 39 44 77 48 85 4 8 16 29 27 45 11 17 24 40
30 53 5 12 18 22 30 22 12 0 25 -10 30 -22 6 -13 14 -30 20 -38 14 -22 95
-163 103 -180 4 -8 16 -28 27 -45 11 -16 23 -37 27 -45 4 -8 26 -46 48 -85 23
-38 44 -77 48 -85 4 -8 16 -28 27 -45 11 -16 23 -37 27 -45 4 -8 36 -63 70
-123 l64 -107 124 0 c75 0 125 4 125 10 0 8 -56 107 -90 160 -20 31 -23 43
-13 60 6 9 23 39 38 66 14 27 35 63 46 79 10 17 22 37 26 45 8 18 89 158 103
180 6 8 15 24 20 35 6 11 19 34 29 50 11 17 32 53 47 80 36 67 58 82 71 48 4
-10 25 -49 48 -88 22 -38 44 -77 48 -85 4 -8 16 -28 26 -45 11 -16 31 -50 44
-75 14 -25 34 -61 46 -80 11 -19 25 -44 31 -55 6 -11 19 -33 30 -50 11 -16 23
-37 27 -45 8 -17 118 -207 133 -230 6 -8 13 -22 17 -30 4 -8 32 -58 63 -110
31 -52 59 -102 63 -110 4 -8 16 -28 27 -45 11 -16 23 -37 27 -45 4 -8 26 -46
48 -85 23 -38 44 -77 48 -85 4 -8 16 -28 27 -45 11 -16 23 -37 27 -45 3 -8 20
-36 37 -63 l31 -47 117 0 118 0 0 24 c0 14 -5 28 -11 31 -5 4 -15 17 -20 28
-5 12 -18 36 -29 52 -11 17 -23 37 -27 45 -4 8 -32 58 -63 110 -31 52 -59 102
-63 110 -4 8 -16 29 -26 45 -11 17 -32 53 -47 80 -49 89 -55 100 -74 130 -11
17 -24 39 -30 50 -6 11 -24 43 -41 70 -16 28 -37 64 -45 80 -8 17 -23 44 -34
60 -11 17 -24 39 -30 50 -6 11 -19 34 -30 50 -11 17 -26 44 -34 60 -8 17 -29
53 -45 80 -17 28 -35 59 -41 70 -5 11 -14 27 -20 35 -15 23 -126 213 -133 230
-4 8 -16 29 -27 45 -11 17 -23 37 -27 45 -4 8 -25 47 -48 85 -22 39 -44 77
-48 85 -4 8 -16 29 -27 45 -11 17 -24 39 -30 50 -6 11 -26 47 -45 80 -19 33
-40 69 -45 80 -6 11 -19 34 -30 50 -11 17 -24 40 -29 51 -17 38 -39 37 -64 -4
-13 -20 -27 -44 -30 -52 -4 -8 -16 -28 -27 -45 -11 -16 -23 -37 -27 -45 -8
-17 -89 -158 -103 -180 -6 -8 -15 -24 -20 -35 -6 -11 -19 -33 -30 -50 -11 -16
-23 -37 -27 -45 -4 -8 -25 -46 -48 -85 -22 -38 -44 -77 -48 -85 -4 -8 -16 -28
-27 -45 -11 -16 -23 -37 -27 -45 -4 -8 -16 -30 -26 -48 -22 -37 -34 -33 -62
21 -9 18 -25 46 -35 62 -11 17 -23 37 -27 45 -4 8 -32 58 -63 110 -31 52 -59
102 -63 110 -4 8 -16 29 -26 45 -11 17 -31 50 -44 75 -14 25 -34 61 -46 80
-11 19 -25 44 -31 55 -6 11 -19 34 -30 50 -11 17 -24 39 -29 50 -5 11 -21 37
-35 58 -14 21 -26 42 -26 47 0 23 -19 8 -25 -19z"/>
<path d="M3470 2141 c0 -11 -5 -23 -11 -26 -5 -4 -15 -17 -20 -28 -5 -12 -18
-35 -29 -52 -11 -16 -23 -37 -27 -45 -4 -8 -32 -58 -63 -110 -31 -52 -59 -102
-63 -110 -4 -8 -16 -28 -27 -45 -11 -16 -23 -37 -27 -45 -4 -8 -25 -46 -48
-85 -22 -38 -44 -77 -48 -85 -4 -8 -16 -28 -27 -45 -11 -16 -23 -37 -27 -45
-4 -8 -19 -36 -35 -61 -15 -25 -28 -56 -28 -67 0 -12 19 -54 43 -94 24 -40 46
-81 50 -90 14 -38 55 -5 90 72 4 8 16 29 27 45 11 17 23 37 27 45 4 8 25 47
48 85 22 39 44 77 48 85 4 8 16 29 27 45 11 17 23 37 27 45 34 67 99 170 106
167 8 -2 50 -70 77 -122 5 -11 14 -27 20 -35 15 -23 126 -213 133 -230 4 -8
16 -28 27 -45 11 -16 23 -37 27 -45 4 -8 25 -46 48 -85 22 -38 44 -77 48 -85
4 -8 16 -28 27 -45 11 -16 23 -37 26 -45 4 -8 12 -22 19 -30 20 -25 24 -58 8
-64 -8 -3 -169 -6 -358 -6 -316 0 -378 -5 -345 -25 6 -4 16 -17 21 -28 5 -12
18 -35 29 -52 10 -16 27 -45 36 -63 9 -18 20 -35 25 -38 5 -3 172 -5 372 -4
413 1 368 10 428 -95 19 -33 37 -66 42 -75 4 -8 16 -28 27 -45 11 -16 23 -37
27 -45 4 -8 26 -46 48 -85 23 -38 44 -77 48 -85 4 -8 16 -28 27 -45 11 -16 23
-37 27 -45 5 -9 23 -41 41 -73 l33 -57 249 0 250 0 -10 26 c-9 22 -92 171
-120 214 -6 8 -15 24 -20 35 -6 11 -19 34 -30 50 -11 17 -23 37 -27 45 -4 8
-25 47 -48 85 -22 39 -44 77 -48 85 -4 8 -16 29 -27 45 -11 17 -23 37 -27 45
-8 18 -89 158 -103 180 -6 8 -13 22 -17 30 -4 8 -18 33 -32 55 -14 22 -35 58
-47 80 -11 22 -31 56 -42 75 -12 19 -26 44 -32 55 -6 11 -19 34 -30 50 -11 17
-23 37 -27 45 -4 8 -25 47 -48 85 -22 39 -44 77 -48 85 -4 8 -16 29 -27 45
-11 17 -23 37 -26 45 -21 46 -33 50 -146 50 -115 0 -143 8 -159 43 -5 12 -19
38 -30 57 -12 19 -32 55 -46 80 -13 25 -33 59 -44 75 -10 17 -23 39 -29 50 -6
11 -16 29 -23 40 -7 11 -30 51 -52 90 -22 38 -45 79 -52 90 -7 11 -17 30 -22
42 -5 11 -15 24 -20 28 -6 3 -11 17 -11 31 0 15 -6 24 -15 24 -8 0 -15 -9 -15
-19z"/>
<path d="M3740 2141 c0 -16 58 -126 100 -191 6 -8 15 -24 20 -35 6 -11 19 -33
29 -50 11 -16 32 -52 47 -80 14 -27 32 -53 38 -57 6 -4 174 -8 373 -8 l362 0
25 -32 c13 -18 34 -51 46 -73 12 -22 30 -53 41 -70 10 -16 22 -37 26 -45 4 -8
26 -46 48 -85 23 -38 44 -77 48 -85 4 -8 16 -28 27 -45 11 -16 23 -37 27 -45
4 -8 32 -58 63 -110 31 -52 59 -102 63 -110 4 -8 16 -28 27 -45 11 -16 23 -37
27 -45 4 -8 25 -46 48 -85 22 -38 44 -77 48 -85 4 -8 16 -28 27 -45 11 -16 23
-37 27 -45 4 -8 32 -58 63 -110 31 -52 59 -102 63 -110 4 -8 16 -28 27 -45 11
-16 23 -37 27 -45 4 -8 25 -46 48 -85 22 -38 44 -77 48 -85 4 -8 16 -28 26
-45 11 -16 29 -48 41 -70 43 -80 26 -75 292 -75 228 0 238 1 238 19 0 16 -58
126 -100 191 -6 8 -15 24 -20 35 -6 11 -19 34 -30 50 -11 17 -23 37 -27 45 -4
8 -25 47 -48 85 -22 39 -44 77 -48 85 -4 8 -16 29 -27 45 -11 17 -23 37 -27
45 -4 8 -32 58 -63 110 -31 52 -59 102 -63 110 -4 8 -16 29 -27 45 -11 17 -23
37 -27 45 -4 8 -25 47 -48 85 -22 39 -44 77 -48 85 -4 8 -16 29 -27 45 -20 31
-31 51 -72 125 -13 25 -35 63 -49 85 -14 22 -29 47 -32 55 -4 8 -16 29 -27 45
-11 17 -24 39 -29 51 -5 11 -28 51 -50 88 -23 36 -41 69 -41 73 0 3 -7 14 -16
24 -9 10 -14 25 -11 34 6 13 76 15 607 15 543 0 600 2 600 16 0 9 -22 53 -48
97 -26 45 -51 89 -55 97 -4 8 -16 29 -27 45 -11 17 -23 37 -27 45 -4 8 -19 37
-35 63 -15 26 -28 54 -28 62 0 13 -162 15 -1245 15 -1220 0 -1245 0 -1245 -19z"/>
<path d="M7190 2145 c0 -15 -26 -65 -61 -120 -10 -16 -22 -37 -26 -45 -4 -8
-26 -46 -48 -85 -23 -38 -44 -77 -48 -85 -4 -8 -16 -28 -27 -45 -11 -16 -23
-37 -27 -45 -4 -8 -32 -58 -63 -110 -31 -52 -59 -102 -63 -110 -4 -8 -16 -28
-27 -45 -11 -16 -23 -37 -27 -45 -4 -8 -25 -46 -48 -85 -22 -38 -44 -77 -48
-85 -4 -8 -16 -28 -26 -45 -35 -54 -61 -105 -61 -120 0 -8 19 -47 43 -87 24
-40 46 -80 50 -88 4 -8 16 -28 27 -45 11 -16 23 -37 27 -45 4 -8 25 -46 48
-85 22 -38 44 -77 48 -85 4 -8 16 -28 27 -45 11 -16 23 -37 27 -45 4 -8 32
-58 63 -110 31 -52 59 -102 63 -110 4 -8 16 -28 27 -45 11 -16 24 -39 29 -51
8 -19 77 -137 101 -174 6 -8 15 -25 22 -37 l11 -23 869 0 c477 0 868 3 868 7
0 9 -48 104 -70 138 -11 17 -23 37 -27 45 -4 8 -26 47 -48 85 -23 39 -45 77
-49 85 -17 37 -35 63 -48 71 -7 5 -288 9 -624 9 -579 0 -612 1 -627 18 -10 10
-17 21 -17 24 0 4 -19 39 -43 80 -24 40 -46 80 -50 88 -4 8 -16 29 -27 45 -11
17 -24 39 -30 50 -6 11 -16 29 -23 40 -7 11 -30 52 -52 90 -22 39 -45 79 -52
90 -7 11 -17 30 -22 42 -5 11 -15 24 -20 28 -22 13 -10 66 32 137 24 40 46 80
50 88 4 8 16 29 27 45 11 17 23 37 27 45 4 8 32 58 63 110 31 52 59 102 63
110 4 8 16 29 27 45 11 17 24 39 29 50 25 55 18 55 411 57 l364 3 27 40 c15
22 39 62 54 90 14 27 35 64 45 80 11 17 23 37 27 45 4 8 26 48 50 88 24 40 43
77 43 82 0 6 -229 10 -630 10 -547 0 -630 -2 -630 -15z"/>
<path d="M5827 1488 c-52 -85 -77 -129 -77 -137 0 -5 -7 -14 -15 -21 -17 -14
-20 -66 -4 -75 5 -4 15 -17 20 -28 5 -12 15 -31 22 -42 7 -11 25 -42 40 -68
l28 -48 126 3 126 3 19 30 c10 17 22 39 28 50 6 11 26 46 44 79 36 64 37 62
-14 141 -11 17 -23 37 -27 45 -3 8 -17 32 -30 53 l-23 37 -125 0 c-118 0 -125
-1 -138 -22z"/>
<path d="M6320 1061 c0 -19 -102 -181 -120 -191 -10 -5 -66 -10 -124 -10 -114
0 -119 -3 -87 -48 10 -15 31 -49 45 -77 15 -27 36 -63 47 -80 10 -16 22 -37
26 -45 4 -8 26 -46 48 -85 23 -38 44 -77 48 -85 4 -8 16 -28 27 -45 11 -16 24
-39 30 -50 6 -11 16 -29 23 -40 7 -11 30 -52 52 -90 22 -39 45 -79 52 -90 7
-11 17 -29 23 -40 6 -11 18 -33 28 -50 l19 -30 246 -3 c213 -2 247 0 247 13 0
8 -19 47 -43 87 -24 40 -46 80 -50 88 -4 8 -16 29 -27 45 -11 17 -23 37 -27
45 -4 8 -25 47 -48 85 -22 39 -44 77 -48 85 -4 8 -16 29 -27 45 -11 17 -23 37
-27 45 -4 8 -32 58 -63 110 -31 52 -59 102 -63 110 -4 8 -16 29 -27 45 -11 17
-23 37 -27 45 -4 8 -26 48 -50 88 -24 41 -43 77 -43 80 -2 25 -60 67 -60 43z"/>
<path d="M2596 628 c-3 -7 -15 -26 -26 -43 -11 -16 -23 -37 -27 -45 -4 -8 -25
-46 -48 -85 -22 -38 -44 -77 -48 -85 -4 -8 -16 -28 -27 -45 -11 -16 -23 -37
-27 -45 -4 -8 -26 -46 -48 -85 -23 -38 -45 -77 -49 -85 -4 -8 -18 -35 -31 -60
l-25 -45 117 -3 c64 -1 123 0 130 2 7 3 18 16 23 28 6 13 19 37 30 53 11 17
23 37 27 45 4 8 26 47 48 85 23 39 44 77 48 85 4 8 16 29 27 45 54 85 54 81
13 154 -21 36 -43 75 -50 86 -7 11 -16 28 -19 38 -7 20 -29 23 -38 5z"/>
</g>
</svg>
